<?xml version="1.0" encoding="utf-8" standalone="no"?>
<!DOCTYPE svg PUBLIC "-//W3C//DTD SVG 1.1//EN"
  "http://www.w3.org/Graphics/SVG/1.1/DTD/svg11.dtd">
<svg xmlns:xlink="http://www.w3.org/1999/xlink" width="722.640974pt" height="261.83952pt" viewBox="0 0 722.640974 261.83952" xmlns="http://www.w3.org/2000/svg" version="1.1">
 <metadata>
  <rdf:RDF xmlns:dc="http://purl.org/dc/elements/1.1/" xmlns:cc="http://creativecommons.org/ns#" xmlns:rdf="http://www.w3.org/1999/02/22-rdf-syntax-ns#">
   <cc:Work>
    <dc:type rdf:resource="http://purl.org/dc/dcmitype/StillImage"/>
    <dc:date>2026-10-03T11:23:31.819174</dc:date>
    <dc:format>image/svg+xml</dc:format>
    <dc:creator>
     <cc:Agent>
      <dc:title>Matplotlib v3.11.1, https://matplotlib.org/</dc:title>
     </cc:Agent>
    </dc:creator>
   </cc:Work>
  </rdf:RDF>
 </metadata>
 <defs>
  <style type="text/css">*{stroke-linejoin: round; stroke-linecap: butt}</style>
 </defs>
 <g id="figure_1">
  <g id="patch_1">
   <path d="M 0 261.83952 
L 722.640974 261.83952 
L 722.640974 0 
L 0 0 
z
" style="fill: #ffffff"/>
  </g>
  <g id="axes_1">
   <g id="patch_2">
    <path d="M 63.106133 222.018543 
L 347.352263 222.018543 
L 347.352263 36.072686 
L 63.106133 36.072686 
z
" style="fill: #ffffff"/>
   </g>
   <g id="matplotlib.axis_1">
    <g id="xtick_1">
     <g id="line2d_1">
      <defs>
       <path id="m97d208039b" d="M 0 0 
L 0 3 
" style="stroke: #111111; stroke-width: 0.65"/>
      </defs>
      <g>
       <use xlink:href="#m97d208039b" x="76.026411" y="222.018543" style="fill: #111111; stroke: #111111; stroke-width: 0.65"/>
      </g>
     </g>
     <g id="text_1">
      <text style="font-size: 12.5px; font-family: 'DejaVu Sans'; text-anchor: middle; fill: #111111" x="76.026411" y="238.015614" transform="rotate(-0 76.026411 238.015614)">12</text>
     </g>
    </g>
    <g id="xtick_2">
     <g id="line2d_2">
      <g>
       <use xlink:href="#m97d208039b" x="205.229198" y="222.018543" style="fill: #111111; stroke: #111111; stroke-width: 0.65"/>
      </g>
     </g>
     <g id="text_2">
      <text style="font-size: 12.5px; font-family: 'DejaVu Sans'; text-anchor: middle; fill: #111111" x="205.229198" y="238.015614" transform="rotate(-0 205.229198 238.015614)">18</text>
     </g>
    </g>
    <g id="xtick_3">
     <g id="line2d_3">
      <g>
       <use xlink:href="#m97d208039b" x="334.431984" y="222.018543" style="fill: #111111; stroke: #111111; stroke-width: 0.65"/>
      </g>
     </g>
     <g id="text_3">
      <text style="font-size: 12.5px; font-family: 'DejaVu Sans'; text-anchor: middle; fill: #111111" x="334.431984" y="238.015614" transform="rotate(-0 334.431984 238.015614)">24</text>
     </g>
    </g>
    <g id="text_4">
     <text style="font-size: 12.5px; font-family: 'DejaVu Sans'; text-anchor: middle; fill: #111111" x="205.229198" y="254.51659" transform="rotate(-0 205.229198 254.51659)">Uniform NSCF mesh n × n × n</text>
    </g>
   </g>
   <g id="matplotlib.axis_2">
    <g id="ytick_1">
     <g id="line2d_4">
      <defs>
       <path id="ma05488941a" d="M 0 0 
L -3 0 
" style="stroke: #111111; stroke-width: 0.65"/>
      </defs>
      <g>
       <use xlink:href="#ma05488941a" x="63.106133" y="197.144041" style="fill: #111111; stroke: #111111; stroke-width: 0.65"/>
      </g>
     </g>
     <g id="text_5">
      <text style="font-size: 12.5px; font-family: 'DejaVu Sans'; text-anchor: end; fill: #111111" x="56.606133" y="201.892576" transform="rotate(-0 56.606133 201.892576)">0.540</text>
     </g>
    </g>
    <g id="ytick_2">
     <g id="line2d_5">
      <g>
       <use xlink:href="#ma05488941a" x="63.106133" y="171.068986" style="fill: #111111; stroke: #111111; stroke-width: 0.65"/>
      </g>
     </g>
     <g id="text_6">
      <text style="font-size: 12.5px; font-family: 'DejaVu Sans'; text-anchor: end; fill: #111111" x="56.606133" y="175.817521" transform="rotate(-0 56.606133 175.817521)">0.542</text>
     </g>
    </g>
    <g id="ytick_3">
     <g id="line2d_6">
      <g>
       <use xlink:href="#ma05488941a" x="63.106133" y="144.993931" style="fill: #111111; stroke: #111111; stroke-width: 0.65"/>
      </g>
     </g>
     <g id="text_7">
      <text style="font-size: 12.5px; font-family: 'DejaVu Sans'; text-anchor: end; fill: #111111" x="56.606133" y="149.742466" transform="rotate(-0 56.606133 149.742466)">0.544</text>
     </g>
    </g>
    <g id="ytick_4">
     <g id="line2d_7">
      <g>
       <use xlink:href="#ma05488941a" x="63.106133" y="118.918875" style="fill: #111111; stroke: #111111; stroke-width: 0.65"/>
      </g>
     </g>
     <g id="text_8">
      <text style="font-size: 12.5px; font-family: 'DejaVu Sans'; text-anchor: end; fill: #111111" x="56.606133" y="123.667411" transform="rotate(-0 56.606133 123.667411)">0.546</text>
     </g>
    </g>
    <g id="ytick_5">
     <g id="line2d_8">
      <g>
       <use xlink:href="#ma05488941a" x="63.106133" y="92.84382" style="fill: #111111; stroke: #111111; stroke-width: 0.65"/>
      </g>
     </g>
     <g id="text_9">
      <text style="font-size: 12.5px; font-family: 'DejaVu Sans'; text-anchor: end; fill: #111111" x="56.606133" y="97.592355" transform="rotate(-0 56.606133 97.592355)">0.548</text>
     </g>
    </g>
    <g id="ytick_6">
     <g id="line2d_9">
      <g>
       <use xlink:href="#ma05488941a" x="63.106133" y="66.768765" style="fill: #111111; stroke: #111111; stroke-width: 0.65"/>
      </g>
     </g>
     <g id="text_10">
      <text style="font-size: 12.5px; font-family: 'DejaVu Sans'; text-anchor: end; fill: #111111" x="56.606133" y="71.5173" transform="rotate(-0 56.606133 71.5173)">0.550</text>
     </g>
    </g>
    <g id="ytick_7">
     <g id="line2d_10">
      <g>
       <use xlink:href="#ma05488941a" x="63.106133" y="40.69371" style="fill: #111111; stroke: #111111; stroke-width: 0.65"/>
      </g>
     </g>
     <g id="text_11">
      <text style="font-size: 12.5px; font-family: 'DejaVu Sans'; text-anchor: end; fill: #111111" x="56.606133" y="45.442245" transform="rotate(-0 56.606133 45.442245)">0.552</text>
     </g>
    </g>
    <g id="text_12">
     <text style="font-size: 12.5px; font-family: 'DejaVu Sans'; text-anchor: middle; fill: #111111" x="13.818047" y="129.045614" transform="rotate(-90 13.818047 129.045614)">Sampled indirect gap (eV)</text>
    </g>
   </g>
   <g id="line2d_11">
    <path d="M 76.026411 195.454849 
L 205.229198 62.63638 
L 334.431984 195.454793 
" clip-path="url(#p71d5277042)" style="fill: none; stroke: #0072b2; stroke-width: 1.5; stroke-linecap: square"/>
    <defs>
     <path id="ma33aa7e558" d="M 0 3 
C 0.795609 3 1.55874 2.683901 2.12132 2.12132 
C 2.683901 1.55874 3 0.795609 3 0 
C 3 -0.795609 2.683901 -1.55874 2.12132 -2.12132 
C 1.55874 -2.683901 0.795609 -3 0 -3 
C -0.795609 -3 -1.55874 -2.683901 -2.12132 -2.12132 
C -2.683901 -1.55874 -3 -0.795609 -3 0 
C -3 0.795609 -2.683901 1.55874 -2.12132 2.12132 
C -1.55874 2.683901 -0.795609 3 0 3 
z
" style="stroke: #0072b2"/>
    </defs>
    <g clip-path="url(#p71d5277042)">
     <use xlink:href="#ma33aa7e558" x="76.026411" y="195.454849" style="fill: #0072b2; stroke: #0072b2"/>
     <use xlink:href="#ma33aa7e558" x="205.229198" y="62.63638" style="fill: #0072b2; stroke: #0072b2"/>
     <use xlink:href="#ma33aa7e558" x="334.431984" y="195.454793" style="fill: #0072b2; stroke: #0072b2"/>
    </g>
   </g>
   <g id="patch_3">
    <path d="M 63.106133 222.018543 
L 63.106133 36.072686 
" style="fill: none; stroke: #111111; stroke-width: 0.65; stroke-linejoin: miter; stroke-linecap: square"/>
   </g>
   <g id="patch_4">
    <path d="M 63.106133 222.018543 
L 347.352263 222.018543 
" style="fill: none; stroke: #111111; stroke-width: 0.65; stroke-linejoin: miter; stroke-linecap: square"/>
   </g>
   <g id="text_13">
    <text style="font-size: 11.25px; font-family: 'DejaVu Sans'; text-anchor: middle; fill: #111111" x="76.026411" y="188.454849" transform="rotate(-0 76.026411 188.454849)">0.8333 × 2π/a</text>
   </g>
   <g id="text_14">
    <text style="font-size: 11.25px; font-family: 'DejaVu Sans'; text-anchor: middle; fill: #111111" x="205.229198" y="55.63638" transform="rotate(-0 205.229198 55.63638)">0.8889 × 2π/a</text>
   </g>
   <g id="text_15">
    <text style="font-size: 11.25px; font-family: 'DejaVu Sans'; text-anchor: middle; fill: #111111" x="334.431984" y="188.454793" transform="rotate(-0 334.431984 188.454793)">0.8333 × 2π/a</text>
   </g>
   <g id="text_16">
    <text style="font-weight: 700; font-size: 15px; font-family: 'DejaVu Sans'; text-anchor: start; fill: #111111" x="11.941829" y="32.46917" transform="rotate(-0 11.941829 32.46917)">a</text>
   </g>
   <g id="text_17">
    <text style="font-weight: 700; font-size: 12.5px; font-family: 'DejaVu Sans'; fill: #111111" transform="translate(74.317089 15.069268)">The sampled minimum need not vary</text>
    <text style="font-weight: 700; font-size: 12.5px; font-family: 'DejaVu Sans'; fill: #111111" transform="translate(155.52412 30.072686)">monotonically</text>
   </g>
  </g>
  <g id="axes_2">
   <g id="patch_5">
    <path d="M 433.079107 222.018543 
L 717.325237 222.018543 
L 717.325237 36.072686 
L 433.079107 36.072686 
z
" style="fill: #ffffff"/>
   </g>
   <g id="matplotlib.axis_3">
    <g id="xtick_4">
     <g id="line2d_12">
      <g>
       <use xlink:href="#m97d208039b" x="445.999385" y="222.018543" style="fill: #111111; stroke: #111111; stroke-width: 0.65"/>
      </g>
     </g>
     <g id="text_18">
      <text style="font-size: 12.5px; font-family: 'DejaVu Sans'; text-anchor: middle; fill: #111111" x="445.999385" y="238.015614" transform="rotate(-0 445.999385 238.015614)">0.70</text>
     </g>
    </g>
    <g id="xtick_5">
     <g id="line2d_13">
      <g>
       <use xlink:href="#m97d208039b" x="497.6805" y="222.018543" style="fill: #111111; stroke: #111111; stroke-width: 0.65"/>
      </g>
     </g>
     <g id="text_19">
      <text style="font-size: 12.5px; font-family: 'DejaVu Sans'; text-anchor: middle; fill: #111111" x="497.6805" y="238.015614" transform="rotate(-0 497.6805 238.015614)">0.75</text>
     </g>
    </g>
    <g id="xtick_6">
     <g id="line2d_14">
      <g>
       <use xlink:href="#m97d208039b" x="549.361614" y="222.018543" style="fill: #111111; stroke: #111111; stroke-width: 0.65"/>
      </g>
     </g>
     <g id="text_20">
      <text style="font-size: 12.5px; font-family: 'DejaVu Sans'; text-anchor: middle; fill: #111111" x="549.361614" y="238.015614" transform="rotate(-0 549.361614 238.015614)">0.80</text>
     </g>
    </g>
    <g id="xtick_7">
     <g id="line2d_15">
      <g>
       <use xlink:href="#m97d208039b" x="601.042729" y="222.018543" style="fill: #111111; stroke: #111111; stroke-width: 0.65"/>
      </g>
     </g>
     <g id="text_21">
      <text style="font-size: 12.5px; font-family: 'DejaVu Sans'; text-anchor: middle; fill: #111111" x="601.042729" y="238.015614" transform="rotate(-0 601.042729 238.015614)">0.85</text>
     </g>
    </g>
    <g id="xtick_8">
     <g id="line2d_16">
      <g>
       <use xlink:href="#m97d208039b" x="652.723844" y="222.018543" style="fill: #111111; stroke: #111111; stroke-width: 0.65"/>
      </g>
     </g>
     <g id="text_22">
      <text style="font-size: 12.5px; font-family: 'DejaVu Sans'; text-anchor: middle; fill: #111111" x="652.723844" y="238.015614" transform="rotate(-0 652.723844 238.015614)">0.90</text>
     </g>
    </g>
    <g id="xtick_9">
     <g id="line2d_17">
      <g>
       <use xlink:href="#m97d208039b" x="704.404958" y="222.018543" style="fill: #111111; stroke: #111111; stroke-width: 0.65"/>
      </g>
     </g>
     <g id="text_23">
      <text style="font-size: 12.5px; font-family: 'DejaVu Sans'; text-anchor: middle; fill: #111111" x="704.404958" y="238.015614" transform="rotate(-0 704.404958 238.015614)">0.95</text>
     </g>
    </g>
    <g id="text_24">
     <text style="font-size: 12.5px; font-family: 'DejaVu Sans'; text-anchor: middle; fill: #111111" x="575.202172" y="254.51659" transform="rotate(-0 575.202172 254.51659)">kx (2π/a), ky = kz = 0</text>
    </g>
   </g>
   <g id="matplotlib.axis_4">
    <g id="ytick_8">
     <g id="line2d_18">
      <g>
       <use xlink:href="#ma05488941a" x="433.079107" y="213.8474" style="fill: #111111; stroke: #111111; stroke-width: 0.65"/>
      </g>
     </g>
     <g id="text_25">
      <text style="font-size: 12.5px; font-family: 'DejaVu Sans'; text-anchor: end; fill: #111111" x="426.579107" y="218.595935" transform="rotate(-0 426.579107 218.595935)">0.54</text>
     </g>
    </g>
    <g id="ytick_9">
     <g id="line2d_19">
      <g>
       <use xlink:href="#ma05488941a" x="433.079107" y="182.575574" style="fill: #111111; stroke: #111111; stroke-width: 0.65"/>
      </g>
     </g>
     <g id="text_26">
      <text style="font-size: 12.5px; font-family: 'DejaVu Sans'; text-anchor: end; fill: #111111" x="426.579107" y="187.324109" transform="rotate(-0 426.579107 187.324109)">0.56</text>
     </g>
    </g>
    <g id="ytick_10">
     <g id="line2d_20">
      <g>
       <use xlink:href="#ma05488941a" x="433.079107" y="151.303748" style="fill: #111111; stroke: #111111; stroke-width: 0.65"/>
      </g>
     </g>
     <g id="text_27">
      <text style="font-size: 12.5px; font-family: 'DejaVu Sans'; text-anchor: end; fill: #111111" x="426.579107" y="156.052283" transform="rotate(-0 426.579107 156.052283)">0.58</text>
     </g>
    </g>
    <g id="ytick_11">
     <g id="line2d_21">
      <g>
       <use xlink:href="#ma05488941a" x="433.079107" y="120.031922" style="fill: #111111; stroke: #111111; stroke-width: 0.65"/>
      </g>
     </g>
     <g id="text_28">
      <text style="font-size: 12.5px; font-family: 'DejaVu Sans'; text-anchor: end; fill: #111111" x="426.579107" y="124.780457" transform="rotate(-0 426.579107 124.780457)">0.60</text>
     </g>
    </g>
    <g id="ytick_12">
     <g id="line2d_22">
      <g>
       <use xlink:href="#ma05488941a" x="433.079107" y="88.760096" style="fill: #111111; stroke: #111111; stroke-width: 0.65"/>
      </g>
     </g>
     <g id="text_29">
      <text style="font-size: 12.5px; font-family: 'DejaVu Sans'; text-anchor: end; fill: #111111" x="426.579107" y="93.508632" transform="rotate(-0 426.579107 93.508632)">0.62</text>
     </g>
    </g>
    <g id="ytick_13">
     <g id="line2d_23">
      <g>
       <use xlink:href="#ma05488941a" x="433.079107" y="57.48827" style="fill: #111111; stroke: #111111; stroke-width: 0.65"/>
      </g>
     </g>
     <g id="text_30">
      <text style="font-size: 12.5px; font-family: 'DejaVu Sans'; text-anchor: end; fill: #111111" x="426.579107" y="62.236806" transform="rotate(-0 426.579107 62.236806)">0.64</text>
     </g>
    </g>
    <g id="text_31">
     <text style="font-size: 12.5px; font-family: 'DejaVu Sans'; text-anchor: middle; fill: #111111" x="391.744146" y="129.045614" transform="rotate(-90 391.744146 129.045614)">Conduction energy − VBM (eV)</text>
    </g>
   </g>
   <g id="line2d_24">
    <path d="M 445.999385 44.52477 
L 448.583441 50.209197 
L 451.167497 55.80091 
L 453.751552 61.299688 
L 456.335608 66.705256 
L 458.919664 72.017358 
L 461.50372 77.235739 
L 464.087775 82.360146 
L 466.671831 87.390418 
L 469.255887 92.326125 
L 471.839943 97.167109 
L 474.423998 101.913123 
L 477.008054 106.563919 
L 479.59211 111.119255 
L 482.176165 115.578886 
L 484.760221 119.94257 
L 487.344277 124.210068 
L 489.928333 128.381138 
L 492.512388 132.455545 
L 495.096444 136.433222 
L 497.6805 140.31359 
L 500.264556 144.096585 
L 502.848611 147.781903 
L 505.432667 151.369456 
L 508.016723 154.858939 
L 510.600778 158.250122 
L 513.184834 161.542776 
L 515.76889 164.736674 
L 518.352946 167.831994 
L 520.937001 170.827699 
L 523.521057 173.723968 
L 526.105113 176.520578 
L 528.689169 179.217306 
L 531.273224 181.813928 
L 533.85728 184.310225 
L 536.441336 186.705975 
L 539.025391 189.000959 
L 541.609447 191.194958 
L 544.193503 193.287754 
L 546.777559 195.279131 
L 549.361614 197.168872 
L 551.94567 198.956762 
L 554.529726 200.642586 
L 557.113782 202.22613 
L 559.697837 203.707183 
L 562.281893 205.085531 
L 564.865949 206.360964 
L 567.450004 207.533269 
L 570.03406 208.60234 
L 572.618116 209.567763 
L 575.202172 210.429432 
L 577.786227 211.187138 
L 580.370283 211.841361 
L 582.954339 212.390524 
L 585.538395 212.835106 
L 588.12245 213.17449 
L 590.706506 213.408435 
L 593.290562 213.538046 
L 595.874618 213.562257 
L 598.458673 213.480866 
L 601.042729 213.293671 
L 603.626785 213.00047 
L 606.21084 212.601062 
L 608.794896 212.095246 
L 611.378952 211.482823 
L 613.963008 210.763592 
L 616.547063 209.937356 
L 619.131119 209.003916 
L 621.715175 207.962938 
L 624.299231 206.814499 
L 626.883286 205.558263 
L 629.467342 204.194036 
L 632.051398 202.721621 
L 634.635453 201.140824 
L 637.219509 199.451449 
L 639.803565 197.653302 
L 642.387621 195.746191 
L 644.971676 193.72992 
L 647.555732 191.604299 
L 650.139788 189.369134 
L 652.723844 187.024233 
L 655.307899 184.569405 
L 657.891955 182.00446 
L 660.476011 179.329206 
L 663.060066 176.543455 
L 665.644122 173.647016 
L 668.228178 170.6397 
L 670.812234 167.521318 
L 673.396289 164.291683 
L 675.980345 160.950606 
L 678.564401 157.4979 
L 681.148457 153.933379 
L 683.732512 150.256856 
L 686.316568 146.468145 
L 688.900624 142.56706 
L 691.484679 138.553416 
L 694.068735 134.427029 
L 696.652791 130.187714 
L 699.236847 125.835288 
L 701.820902 121.369567 
L 704.404958 116.790368 
" clip-path="url(#p437f2c2188)" style="fill: none; stroke: #0072b2; stroke-width: 1.5; stroke-linecap: square"/>
   </g>
   <g id="patch_6">
    <path d="M 433.079107 222.018543 
L 433.079107 36.072686 
" style="fill: none; stroke: #111111; stroke-width: 0.65; stroke-linejoin: miter; stroke-linecap: square"/>
   </g>
   <g id="patch_7">
    <path d="M 433.079107 222.018543 
L 717.325237 222.018543 
" style="fill: none; stroke: #111111; stroke-width: 0.65; stroke-linejoin: miter; stroke-linecap: square"/>
   </g>
   <g id="text_32">
    <text style="font-weight: 700; font-size: 15px; font-family: 'DejaVu Sans'; text-anchor: start; fill: #111111" x="381.914803" y="32.46917" transform="rotate(-0 381.914803 32.46917)">b</text>
   </g>
   <g id="text_33">
    <text style="font-weight: 700; font-size: 12.5px; font-family: 'DejaVu Sans'; fill: #111111" transform="translate(462.576195 15.069268)">Local Γ–X valley refinement; 12³</text>
    <text style="font-weight: 700; font-size: 12.5px; font-family: 'DejaVu Sans'; fill: #111111" transform="translate(523.491234 30.072686)">parent density</text>
   </g>
   <g id="PathCollection_1">
    <defs>
     <path id="m7a41d5a6e2" d="M 0 3 
C 0.795609 3 1.55874 2.683901 2.12132 2.12132 
C 2.683901 1.55874 3 0.795609 3 0 
C 3 -0.795609 2.683901 -1.55874 2.12132 -2.12132 
C 1.55874 -2.683901 0.795609 -3 0 -3 
C -0.795609 -3 -1.55874 -2.683901 -2.12132 -2.12132 
C -2.683901 -1.55874 -3 -0.795609 -3 0 
C -3 0.795609 -2.683901 1.55874 -2.12132 2.12132 
C -1.55874 2.683901 -0.795609 3 0 3 
z
" style="stroke: #e69f00"/>
    </defs>
    <g clip-path="url(#p437f2c2188)">
     <use xlink:href="#m7a41d5a6e2" x="595.151993" y="213.566459" style="fill: #e69f00; stroke: #e69f00"/>
    </g>
   </g>
  </g>
 </g>
 <defs>
  <clipPath id="p71d5277042">
   <rect x="63.106133" y="36.072686" width="284.24613" height="185.945858"/>
  </clipPath>
  <clipPath id="p437f2c2188">
   <rect x="433.079107" y="36.072686" width="284.24613" height="185.945858"/>
  </clipPath>
 </defs>
</svg>
